<svg width="89" height="72" viewBox="0 0 89 72" fill="none" xmlns="http://www.w3.org/2000/svg">
<path d="M25.0442 45.8088L39.5056 20.7611L68.4282 20.7611L82.8895 45.8088L68.4282 70.8566L39.5056 70.8566L25.0442 45.8088Z" fill="white" stroke="#58C5C3"/>
<path d="M79.2792 46.1264L66.8169 68.0838" stroke="#58C5C3"/>
<path d="M0.279306 45.6961L23.3007 45.8164" stroke="#58C5C3"/>
<path d="M74.2005 20.029L85.607 40.0262" stroke="#58C5C3"/>
<path d="M76.7985 18.529L88.2051 38.5263" stroke="#58C5C3"/>
<g clip-path="url(#clip0_11_7)">
<path d="M39 37V56H68V37H39ZM53.4991 48.7329L41.6061 38.4079H65.3939L53.4991 48.7329ZM48.7617 46.4973L40.4245 53.7316V39.2611L48.7599 46.4973H48.7617ZM49.8421 47.4341L53.4991 50.6083L57.156 47.4341L65.4013 54.5902H41.5987L49.8421 47.4341ZM58.2364 46.4973L66.5718 39.2611V53.7316L58.2364 46.4955V46.4973Z" fill="#003057"/>
</g>
<defs>
<clipPath id="clip0_11_7">
<rect width="29" height="19" fill="white" transform="translate(39 37)"/>
</clipPath>
</defs>
</svg>
