<svg width="67" height="72" viewBox="0 0 67 72" fill="none" xmlns="http://www.w3.org/2000/svg">
<path d="M62.3829 46.4168L47.9216 71.4645L18.999 71.4645L4.53763 46.4168L18.9989 21.369L47.9216 21.369L62.3829 46.4168Z" fill="white" stroke="#58C5C3"/>
<path d="M8.14792 46.0992L20.6102 24.1418" stroke="#58C5C3"/>
<path d="M9.16063 48.5308L21.9451 70.3021" stroke="#58C5C3"/>
<g clip-path="url(#clip0_11_5)">
<path d="M28.9767 31H42.0233C43.11 31 44 31.882 44 32.959V58.0411C44 59.1163 43.11 60 42.0233 60H28.9767C27.8918 60 27 59.118 27 58.0411V32.959C27 31.8838 27.89 31 28.9767 31ZM37.586 32.4116H33.414C33.2786 32.4116 33.1739 32.5171 33.1739 32.6513C33.1739 32.7855 33.2786 32.8857 33.414 32.8857H37.586C37.7214 32.8857 37.8279 32.7819 37.8279 32.6513C37.8279 32.5207 37.7214 32.4116 37.586 32.4116ZM35.4991 59.0214C36.0461 59.0214 36.4866 58.5849 36.4866 58.0411C36.4866 57.4972 36.0461 57.0625 35.4991 57.0625C34.9521 57.0625 34.5116 57.499 34.5116 58.0411C34.5116 58.5831 34.9521 59.0214 35.4991 59.0214ZM28.3756 56.3755H42.6244V34.1076H28.3756V56.3755Z" fill="#003057"/>
</g>
<defs>
<clipPath id="clip0_11_5">
<rect width="17" height="29" fill="white" transform="matrix(-1 0 0 1 44 31)"/>
</clipPath>
</defs>
</svg>
