<svg width="18" height="32" viewBox="0 0 18 32" fill="none" xmlns="http://www.w3.org/2000/svg">
<path d="M6.31034 2.68965H11.1619C12.5124 2.68965 13.6964 3.59202 14.0545 4.89418L17.4961 17.4089C17.8038 18.5277 17.4386 19.7237 16.5585 20.4799L8.26536 27.6049C6.32003 29.2763 3.31035 27.8941 3.31035 25.3294V5.68965C3.31035 4.0328 4.65349 2.68965 6.31034 2.68965Z" fill="#58C5C3"/>
<path d="M3.00001 0H7.85157C9.20207 0 10.3861 0.902373 10.7442 2.20453L14.1857 14.7193C14.4934 15.8381 14.1283 17.034 13.2481 17.7902L4.95502 24.9153C3.0097 26.5866 1.33514e-05 25.2045 1.33514e-05 22.6398V3C1.33514e-05 1.34315 1.34316 0 3.00001 0Z" fill="#003057"/>
</svg>
