<svg width="95" height="33" viewBox="0 0 95 33" fill="none" xmlns="http://www.w3.org/2000/svg">
<path d="M27.8561 7.79865C30.1283 7.79865 31.1471 8.75003 31.1471 11.4074V21.2427C31.1471 24.648 27.6751 26.3212 24.1361 26.3212C20.5971 26.3212 17.3464 24.6415 17.3464 21.2427V7.79865C18.8746 7.79865 20.6038 8.28418 20.6172 11.0006L20.6374 20.4554C20.6374 22.3188 22.065 23.2374 24.2367 23.2374C26.4083 23.2374 27.8628 22.3122 27.8628 20.4554V7.79865H27.8561ZM35.5507 26.0784H38.8216V14.7077C38.8216 12.2734 40.1487 10.8103 42.6756 10.8103H43.6407C46.5095 10.8103 46.9786 9.36023 46.9786 7.80521H42.4008C38.3524 7.80521 35.5574 10.1017 35.5574 14.8127V26.085L35.5507 26.0784ZM5.6436 14.9242C4.54437 14.6355 3.53898 14.1565 3.53898 12.8443C3.53898 11.532 4.37681 10.8037 6.1597 10.8037H9.67188C11.2537 10.8037 13.117 10.2985 13.1237 7.79865H6.47473C2.35262 7.80521 0 9.85233 0 12.759C0 15.4491 1.76279 16.9582 4.90631 17.7784L8.39167 18.6904C9.77912 19.0644 10.2952 19.9436 10.2952 20.8556C10.2952 22.2269 9.40377 23.0602 7.29245 23.0799L0.623343 23.1324V26.085H7.41309C11.4883 26.085 13.8409 23.9263 13.8409 21.0721C13.8409 18.218 12.6948 16.7942 9.61155 15.9675L5.66371 14.9308L5.6436 14.9242ZM63.6279 10.4035V26.0718C61.5635 26.0718 60.5246 25.5076 60.29 23.631C60.29 23.631 58.849 26.4393 54.7403 26.4393C49.7401 26.4393 46.791 22.5419 46.9451 16.991C47.1194 10.9349 51.2147 7.80521 55.558 7.79865H56.3824H63.6279V10.41V10.4035ZM60.0957 10.725H56.3221C56.1277 10.7381 55.9065 10.7512 55.6853 10.7512C52.8367 10.7512 50.6852 12.6868 50.5511 17.0173C50.4171 21.597 52.4949 23.4867 55.3837 23.4867C58.6077 23.4867 60.0957 21.0721 60.0957 18.5395V10.7184V10.725Z" fill="#0033A0"/>
<path fill-rule="evenodd" clip-rule="evenodd" d="M81.296 27.4956C81.3296 27.5022 81.3631 27.5284 81.3497 27.5941C80.9944 28.0534 80.4649 28.5784 79.7075 29.0968C78.9568 29.6152 78.0721 30.1271 77.1538 30.5602C76.1886 30.9999 75.3374 31.4002 74.4393 31.6233C73.4272 31.8661 72.5558 31.9645 71.8386 31.8792C71.2555 31.8136 70.7662 31.643 70.4043 31.3542C70.3842 31.3346 70.3775 31.3083 70.3775 31.2821C70.3775 31.2427 70.4177 31.2099 70.4646 31.1968C72.7167 30.849 74.7811 30.2977 76.698 29.6546C78.6016 29.0181 80.1834 28.2765 81.296 27.4956Z" fill="#00AEC7"/>
<path fill-rule="evenodd" clip-rule="evenodd" d="M81.1151 26.4458C79.9488 27.148 77.4487 28.1914 75.2704 28.7951C72.6698 29.517 70.5852 29.8714 69.1978 29.6679C67.9712 29.4907 67.3613 28.9329 67.1736 28.7295C67.1468 28.7098 67.1133 28.6836 67.1334 28.6442C67.1334 28.5983 67.1736 28.5655 67.2272 28.5589L67.6964 28.5195C68.742 28.4473 70.5919 28.408 72.7636 28.093C75.2704 27.7452 79.2986 27.043 81.0882 26.3343C81.1285 26.3343 81.1553 26.3737 81.1218 26.4458" fill="#00AEC7"/>
<path fill-rule="evenodd" clip-rule="evenodd" d="M80.9073 29.569C80.9408 29.5756 80.9743 29.5953 80.9609 29.6609C80.5588 30.7371 80.0426 31.5311 79.0373 32.0233C77.2678 32.883 76.3428 32.3842 76.2155 32.3317C76.1886 32.3186 76.1618 32.2858 76.1618 32.2399C76.1618 32.2005 76.1953 32.1677 76.2423 32.1611C77.0064 31.9314 79.3255 31.0849 80.8537 29.5822C80.8738 29.5822 80.8872 29.569 80.9073 29.569Z" fill="#00AEC7"/>
<path fill-rule="evenodd" clip-rule="evenodd" d="M92.6034 13.3102C92.6034 13.3102 92.657 13.3495 92.657 13.3692C92.6436 13.402 92.6168 13.4151 92.5631 13.4151C92.0336 13.2708 90.9143 12.9624 89.4933 12.5884C86.256 11.7158 74.0572 8.50073 73.8561 8.4548L73.7958 8.42855C73.0719 8.20547 72.4687 7.83804 71.9995 7.3525C71.8588 7.20815 71.7448 7.0638 71.6242 6.88665C71.2153 6.27645 71.1148 5.37755 71.0947 5.21352C71.0947 5.2004 71.1081 5.16103 71.1282 5.13478C71.155 5.1151 71.1818 5.10854 71.2488 5.1151L73.2462 5.88933C77.9984 7.70025 90.5591 12.49 92.6101 13.3102" fill="#00AEC7"/>
<path fill-rule="evenodd" clip-rule="evenodd" d="M90.5523 11.3942C90.5657 11.473 90.5322 11.4992 90.4652 11.4861C89.748 11.1318 88.1193 10.3707 86.4905 9.57676C85.1031 8.89438 75.706 4.53769 75.0693 4.22274L73.9365 3.64535C73.769 3.57318 73.6148 3.47476 73.4674 3.38946C73.025 3.11389 72.7904 2.92361 72.5424 2.62835C72.348 2.37246 72.1939 2.0772 72.0665 1.76882C71.7984 1.10613 71.8118 0.23348 71.8319 0.0825703C71.8319 0.0628864 71.8319 0.0235187 71.8721 0.0103961C71.8922 0.0038348 71.9325 -0.00928778 71.9928 0.0103961L73.1724 0.712454L73.8025 1.09301L77.2677 3.15982C82.04 6.10583 88.8029 10.3116 90.559 11.3877" fill="#00AEC7"/>
<path fill-rule="evenodd" clip-rule="evenodd" d="M94.031 14.5836C94.031 14.5836 94.0846 14.6164 94.0846 14.6492C94.0846 14.682 94.0511 14.7017 94.0042 14.7017C92.1409 14.5705 75.4178 13.4155 75.4178 13.4155C75.2637 13.4155 75.143 13.3958 74.9889 13.3499C73.655 12.9299 72.8842 11.9324 72.5692 10.9219C72.5558 10.8825 72.5491 10.8365 72.5692 10.8037C72.596 10.7775 72.6362 10.7512 72.6765 10.7578C72.6765 10.7578 92.3956 14.2752 94.031 14.577" fill="#00AEC7"/>
<path fill-rule="evenodd" clip-rule="evenodd" d="M93.1999 15.6328C93.1999 15.6328 93.2669 15.6722 93.2535 15.7116C93.2535 15.7313 93.2267 15.7575 93.1999 15.7641C92.5095 15.8756 79.8013 17.5753 79.7142 17.5818C79.6405 17.595 79.5667 17.6015 79.493 17.6015C79.4193 17.6015 79.3523 17.6015 79.2718 17.595C78.6686 17.5359 78.0788 17.2472 77.5493 16.7025C77.2812 16.4138 77.0265 15.9675 76.9661 15.7903C76.946 15.7641 76.946 15.7313 76.9661 15.705C76.9929 15.6788 77.0265 15.6657 77.0533 15.6525C77.0533 15.6525 81.2826 15.646 83.9838 15.6525C86.0013 15.6525 88.1461 15.6525 89.8821 15.6525C91.4036 15.6525 92.6033 15.6525 93.1999 15.6394" fill="#00AEC7"/>
<path fill-rule="evenodd" clip-rule="evenodd" d="M92.2414 16.9123C92.2414 16.9123 92.3218 16.8991 92.3285 16.9319C92.3285 16.9516 92.3755 16.991 92.3017 17.0304C91.8929 17.2994 82.7237 21.0071 82.6232 21.0399C82.1272 21.1974 81.5641 21.2893 81.1553 20.6068C80.981 20.3312 80.8403 20.095 80.7665 19.99C80.7397 19.944 80.6459 19.839 80.9073 19.7668C80.9073 19.7668 83.4945 19.0975 85.7868 18.5266C88.4477 17.8835 91.4505 17.1354 92.2414 16.9188" fill="#00AEC7"/>
<path fill-rule="evenodd" clip-rule="evenodd" d="M88.193 23.1193C88.2265 23.1193 88.2533 23.1521 88.2332 23.2177C87.3552 24.2216 84.0776 27.7384 82.603 29.2934C82.4489 29.4378 82.3684 29.3722 82.4221 29.2147C82.4221 29.2147 82.7103 28.5258 82.8242 27.9943C82.9046 27.6662 82.9717 27.4038 83.1526 27.266C85.0763 25.6782 86.9195 24.11 88.1327 23.1389L88.1863 23.1193H88.193Z" fill="#00AEC7"/>
<path fill-rule="evenodd" clip-rule="evenodd" d="M91.2025 18.6642C91.2494 18.6707 91.2695 18.697 91.2494 18.7757C90.3513 19.5106 86.2493 22.8568 84.0441 24.6152L83.9637 24.6743C83.3202 25.1598 82.898 25.2714 82.8242 24.2281C82.8041 23.9722 82.7706 23.7754 82.7706 23.7754C82.7304 23.5523 82.7974 23.5523 82.8845 23.5064C83.595 23.0799 84.9825 22.3254 86.0884 21.6823C88.0456 20.5341 90.3379 19.1694 91.2159 18.6576" fill="#00AEC7"/>
</svg>
