<svg width="67" height="72" viewBox="0 0 67 72" fill="none" xmlns="http://www.w3.org/2000/svg">
<path d="M19.0387 71.5477L4.57735 46.5L19.0387 21.4523L47.9613 21.4523L62.4227 46.5L47.9613 71.5477L19.0387 71.5477Z" fill="white" stroke="#58C5C3"/>
<path d="M21.5262 24.3038L8.47382 45.6962" stroke="#58C5C3"/>
<path d="M46.4312 24.7377L59.2157 46.509" stroke="#58C5C3"/>
<path d="M20 69H47" stroke="#58C5C3"/>
<path d="M49 19L63 1" stroke="#58C5C3"/>
<path d="M52 21L66 3" stroke="#58C5C3"/>
<g clip-path="url(#clip0_11_3)">
<path d="M44.8832 44.2265C44.8545 44.3737 44.8545 44.5224 44.7999 44.6589C44.468 45.46 43.8467 46.1246 43.3876 46.8635C42.7996 47.8041 37.7929 45.7726 38.44 44.5163C38.6809 44.0505 39.6295 42.7639 39.7023 42.2465C39.7674 41.7838 39.1552 41.4227 38.593 41.3772C37.1065 41.2558 35.2077 41.3666 33.6318 41.3772H33.3681C31.7921 41.3666 29.8919 41.2558 28.4068 41.3772C27.8446 41.4227 27.2339 41.7838 27.2976 42.2465C27.3688 42.7639 28.3189 44.0505 28.5599 44.5163C29.2069 45.7726 24.2002 47.8041 23.6092 46.8635C23.1546 46.1246 22.5333 45.46 22.2015 44.6589C22.1469 44.5224 22.1439 44.3737 22.1181 44.2265C21.3817 40.9417 24.2123 37.5887 28.475 37.2443C30.104 37.1108 31.7361 37.0364 33.3681 37.0106V37C33.4136 37 33.456 37.003 33.5014 37.003C33.5439 37.003 33.5863 37 33.6318 37V37.0106C35.2638 37.0394 36.8958 37.1108 38.5233 37.2443C42.786 37.5887 45.6182 40.9417 44.8832 44.2265ZM41.9571 55.5677C42.0026 56.3567 41.4889 57 40.81 57H26.1899C25.514 57 24.9973 56.3552 25.0428 55.5677L25.4686 48.3807C27.0188 48.0165 28.9993 47.0652 29.7176 45.8879C30.1177 45.2309 30.1601 44.4905 29.8313 43.8533C29.7479 43.6894 29.5934 43.4421 29.4115 43.1629C29.4095 43.1538 29.4065 43.1463 29.4024 43.1402H37.361C37.358 43.1508 37.358 43.1538 37.3504 43.169C37.2504 43.4103 37.2171 43.5954 37.2338 43.7319C37.211 43.7744 37.1807 43.826 37.1625 43.8578C36.8367 44.489 36.8792 45.2294 37.2792 45.8864C37.999 47.0652 39.9781 48.015 41.5283 48.3761L41.9571 55.5662V55.5677ZM36.2942 48.1076C34.7622 46.5737 32.2725 46.5737 30.7374 48.1076C29.2054 49.6415 29.2054 52.1373 30.7374 53.6712C32.1255 55.058 34.297 55.1884 35.8321 54.0627L34.8728 53.1023C33.8712 53.7152 32.5453 53.5938 31.68 52.7275C30.6693 51.7155 30.6693 50.0648 31.68 49.0498C32.6953 48.0378 34.3394 48.0378 35.3532 49.0498C36.2139 49.9115 36.3351 51.2346 35.7305 52.2329L36.6928 53.1963C37.8081 51.6594 37.6777 49.4913 36.2927 48.1076H36.2942Z" fill="#003057"/>
</g>
<defs>
<clipPath id="clip0_11_3">
<rect width="23" height="20" fill="white" transform="translate(22 37)"/>
</clipPath>
</defs>
</svg>
