<svg width="86" height="71" viewBox="0 0 86 71" fill="none" xmlns="http://www.w3.org/2000/svg">
<path d="M27.2711 45.266L41.602 20.4442L70.2638 20.4442L84.5947 45.266L70.2638 70.0878L41.602 70.0878L27.2711 45.266Z" fill="white" stroke="#58C5C3"/>
<path d="M81.0214 45.5807L68.6693 67.3439" stroke="#58C5C3"/>
<path d="M80.0177 43.1706L67.3462 21.5918" stroke="#58C5C3"/>
<path d="M0.957638 46.9075L23.7755 47.0267" stroke="#58C5C3"/>
<path d="M0.957669 43.9341L23.7755 44.0533" stroke="#58C5C3"/>
<g clip-path="url(#clip0_3_92)">
<path d="M65.0462 45.885C71.108 39.5446 68.5936 35.047 59.9188 37.4363C59.8277 37.0771 59.7289 36.7336 59.6226 36.3978C60.5265 35.6716 59.972 34.2505 58.8402 34.3442C56.3335 28.8706 52.2847 29.5889 50.2034 37.0147C41.164 34.4692 38.756 39.2869 45.4178 45.885C45.0836 46.2207 44.7569 46.5565 44.4531 46.8922C43.3972 46.455 42.4553 47.6418 43.0934 48.6101C39.6143 53.7011 42.4933 56.8869 50.0818 54.7943C52.4366 63.852 57.7691 63.7114 60.0252 54.3336C60.329 54.4117 60.6405 54.5132 60.9291 54.5835C61.0735 55.7547 62.5851 55.9968 63.0637 54.927C69.0798 55.4658 70.3104 51.3977 65.0387 45.885H65.0462ZM64.6209 45.4555C63.5194 44.3545 62.2053 43.2614 60.7392 42.215C60.5949 40.708 60.3594 39.3025 60.0556 38.022C68.0239 35.82 70.356 39.4665 64.6209 45.4555ZM60.8076 43.0037C62.0762 43.9407 63.2232 44.9089 64.2031 45.885C63.2308 46.8454 62.0989 47.8136 60.8456 48.7428C60.9671 46.8688 60.9747 45.0963 60.8152 43.0037H60.8076ZM60.2151 49.1879C58.4072 50.4607 56.9715 51.2649 55.4903 52.0145C53.4849 51.0853 51.791 50.1405 49.7552 48.7038C49.6337 46.8922 49.6261 45.0963 49.7856 43.0427C51.5175 41.8168 53.3634 40.7236 55.4675 39.7398C57.0247 40.5206 58.43 41.3249 60.1771 42.5508C60.3822 44.7684 60.405 46.9313 60.2227 49.1957L60.2151 49.1879ZM60.086 41.7543C58.7035 40.8095 57.4805 40.099 56.1815 39.4197C57.3058 38.9277 58.4148 38.5139 59.4707 38.1937C59.7289 39.2947 59.9416 40.4894 60.086 41.7543ZM58.2705 34.5472C57.3058 35.2578 57.8679 36.7648 59.0529 36.6243C59.1516 36.9366 59.2428 37.2645 59.3339 37.6081C58.0958 37.9829 56.8044 38.467 55.4827 39.0761C53.8799 38.2874 52.2999 37.6472 50.7959 37.1865C52.5734 30.8461 55.8397 29.2298 58.2781 34.555L58.2705 34.5472ZM50.6364 37.7565C51.9657 38.1703 53.371 38.7169 54.799 39.3962C53.0747 40.2317 51.5479 41.0984 49.8691 42.2463C50.0363 40.6299 50.2945 39.1151 50.644 37.7565H50.6364ZM50.0515 37.5769C49.664 39.1073 49.383 40.833 49.2235 42.6992C47.9701 43.5893 46.8383 44.5185 45.8508 45.4555C39.7967 39.4821 41.3842 35.1563 50.0515 37.5847V37.5769ZM49.1399 48.2509C48.0992 47.4779 47.1345 46.6814 46.2838 45.8772C47.1421 45.0651 48.1068 44.253 49.1703 43.4722C49.0488 45.3774 49.064 46.7205 49.1399 48.2509ZM43.5491 48.9849C44.643 49.508 45.6533 48.2275 44.9241 47.2514C45.2127 46.9313 45.5241 46.6111 45.8432 46.291C46.8231 47.2202 47.9473 48.1416 49.1779 49.0239C49.3146 50.8979 49.5805 52.6392 49.9451 54.1931C43.6555 55.9265 40.0777 54.0603 43.5491 48.9771V48.9849ZM49.816 49.469C51.5935 50.6871 53.0443 51.4992 54.799 52.3503C53.333 53.053 51.8973 53.6152 50.53 54.0291C50.2034 52.647 49.9603 51.1088 49.816 49.4768V49.469ZM50.6743 54.6069C52.2164 54.1384 53.8495 53.4903 55.4979 52.6704C56.85 53.2873 58.1717 53.787 59.4403 54.1618C57.3438 62.8291 52.9076 63.1961 50.6743 54.6069ZM59.577 53.5762C58.4908 53.256 57.3589 52.8344 56.1967 52.3269C57.5109 51.6397 58.7338 50.9214 60.1467 49.9609C60.0176 51.2415 59.8277 52.4518 59.577 53.5762ZM63.17 54.318C63.0637 53.1077 61.4913 52.8422 61.0203 53.9744C60.7468 53.9119 60.4506 53.8182 60.1695 53.7402C60.4506 52.444 60.6633 51.0307 60.7924 49.5158C62.2433 48.4773 63.5346 47.392 64.6285 46.3066C68.9355 50.812 69.2317 54.8333 63.1776 54.318H63.17ZM51.6315 46.1036C51.6315 50.6559 58.3692 50.6559 58.3692 46.1036C58.3692 41.5513 51.6315 41.5513 51.6315 46.1036Z" fill="#003057"/>
</g>
<defs>
<clipPath id="clip0_3_92">
<rect width="26.7612" height="30.7259" fill="white" transform="translate(41.6198 30.7523)"/>
</clipPath>
</defs>
</svg>
