<svg width="89" height="71" viewBox="0 0 89 71" fill="none" xmlns="http://www.w3.org/2000/svg">
<path d="M24.7649 45.2978L39.2263 20.25L68.1489 20.25L82.6102 45.2978L68.1489 70.3455L39.2263 70.3455L24.7649 45.2978Z" fill="white" stroke="#58C5C3"/>
<path d="M78.9999 45.6153L66.5376 67.5727" stroke="#58C5C3"/>
<path d="M1.58521e-06 45.1851L23.0214 45.3053" stroke="#58C5C3"/>
<path d="M73.9211 19.5179L85.3277 39.5152" stroke="#58C5C3"/>
<path d="M76.5192 18.018L87.9257 38.0152" stroke="#58C5C3"/>
<g clip-path="url(#clip0_3_93)">
<path d="M59.69 37.8927C59.5368 37.8927 59.3784 37.8424 59.2251 37.6913C58.9646 37.4345 58.9646 37.0267 59.2251 36.7749L61.9633 34.076C62.326 33.7185 62.5304 33.21 62.5304 32.7014C62.5304 32.1928 62.326 31.7346 61.9633 31.3268C61.6006 30.9693 61.1357 30.7679 60.5687 30.7679C60.0527 30.7679 59.5879 30.9693 59.1741 31.3268L56.4359 34.0257C56.1753 34.2825 55.7667 34.2825 55.5061 34.0257C55.2456 33.7689 55.2456 33.3661 55.5061 33.1093L58.2443 30.4104C58.8624 29.8011 59.6389 29.494 60.5176 29.494C61.3963 29.494 62.1728 29.8515 62.7909 30.4104C63.4091 31.0196 63.7207 31.785 63.7207 32.6511C63.7207 33.5171 63.358 34.2825 62.7909 34.8917L60.0527 37.5906C60.0527 37.8474 59.8484 37.8978 59.69 37.8978V37.8927Z" fill="#003057"/>
<path d="M46.9238 48.7941C46.2545 48.7941 45.5802 48.5373 45.1153 48.0287C44.6504 47.5705 44.3899 46.9058 44.3899 46.2462C44.3899 45.5866 44.6504 44.922 45.1664 44.4637L54.3158 35.4507C54.5764 35.1939 54.9851 35.1939 55.2456 35.4507C55.5061 35.7075 55.5061 36.1103 55.2456 36.3671L45.994 45.3298C45.7335 45.5866 45.6313 45.8887 45.6313 46.2462C45.6313 46.6037 45.7845 46.9109 45.994 47.1626C46.2545 47.4144 46.561 47.5201 46.8727 47.5201C47.2354 47.5201 47.547 47.3691 47.8024 47.1626L56.9518 38.1445C57.2124 37.8877 57.6211 37.8877 57.8816 38.1445C58.1421 38.4013 58.1421 38.8041 57.8816 39.0609L48.7322 48.0791C48.2673 48.5373 47.593 48.7941 46.9238 48.7941Z" fill="#003057"/>
<path d="M58.8114 40.5916C58.6581 40.5916 58.4997 40.5413 58.3465 40.3902L52.8701 34.9925C52.7679 34.8917 52.6658 34.6853 52.6658 34.5342C52.6658 34.3832 52.7168 34.2271 52.8701 34.076L54.6785 32.2936C54.9391 32.0368 55.3529 32.0368 55.6083 32.2936L61.0847 37.6913C61.3452 37.9431 61.3452 38.351 61.0847 38.6078L59.2251 40.3902C59.123 40.5413 58.9646 40.5916 58.8114 40.5916ZM54.2136 34.5292L58.7603 39.0106L59.69 38.0942L55.1434 33.6128L54.2136 34.5292Z" fill="#003057"/>
<path d="M61.5495 36.1103C61.3963 36.1103 61.2379 36.0599 61.0847 35.9089L58.8114 33.6682C58.5508 33.4114 58.5508 33.0035 58.8114 32.7518C59.0719 32.495 59.4806 32.495 59.7411 32.7518L62.0144 34.9924C62.275 35.2492 62.275 35.6571 62.0144 35.9089C61.8612 36.0096 61.7028 36.1103 61.5495 36.1103Z" fill="#003057"/>
<path d="M46.1472 59.4889C44.8037 59.4889 43.7207 58.3157 43.7207 56.8907C43.7207 56.0247 44.3388 55.209 44.911 54.3933C45.1715 54.0358 45.4269 53.7286 45.5853 53.4265C45.6875 53.22 45.8969 53.1193 46.1524 53.1193C46.4129 53.1193 46.6172 53.22 46.7194 53.4265C46.9237 53.7336 47.1332 54.0861 47.4448 54.4436C48.0119 55.209 48.6351 56.0247 48.6351 56.8907C48.584 58.3157 47.4959 59.4889 46.1524 59.4889H46.1472ZM46.0962 54.8515C46.0451 54.9522 45.9429 55.0579 45.8918 55.1083C45.4269 55.7175 44.9621 56.3822 44.9621 56.8404C44.9621 57.5554 45.478 58.1647 46.1013 58.1647C46.7245 58.1647 47.2405 57.5554 47.2405 56.8404C47.2405 56.3822 46.7756 55.7729 46.3107 55.1586C46.2596 55.0579 46.2085 54.9522 46.1064 54.8515H46.0962Z" fill="#003057"/>
<path d="M49.5598 54.5493C48.3695 54.5493 47.3886 53.5322 47.3886 52.208C47.3886 51.4426 47.9046 50.7326 48.4206 50.0176C48.6249 49.7105 48.8343 49.4587 48.9876 49.2019C49.0898 49.0005 49.2992 48.8948 49.5547 48.8948C49.8152 48.8948 50.0195 48.9955 50.1217 49.2019C50.275 49.4587 50.4844 49.7608 50.7398 50.068C51.2558 50.7326 51.7718 51.4426 51.7718 52.208C51.7207 53.4819 50.7398 54.5493 49.5495 54.5493H49.5598ZM49.5087 50.6772C49.4576 50.7276 49.4576 50.7779 49.4065 50.8283C49.0438 51.3369 48.63 51.8958 48.63 52.2533C48.63 52.8122 49.0438 53.3207 49.5087 53.3207C50.0246 53.3207 50.3873 52.8625 50.3873 52.2533C50.3873 51.8958 49.9736 51.3369 49.6108 50.8786C49.6108 50.7779 49.5598 50.7276 49.5087 50.6772Z" fill="#003057"/>
</g>
<defs>
<clipPath id="clip0_3_93">
<rect width="20" height="30" fill="white" transform="translate(43.7207 29.4889)"/>
</clipPath>
</defs>
</svg>
