<svg width="241" height="71" viewBox="0 0 241 71" fill="none" xmlns="http://www.w3.org/2000/svg">
<path d="M23.7248 66.3825L23.0177 67.0896L23.7248 66.3825ZM23.1298 63.4075L22.6826 64.3019L22.8937 64.4075H23.1298V63.4075ZM22.7898 63.6625L23.616 64.2258L23.654 64.1701L23.6842 64.1097L22.7898 63.6625ZM6.38477 63.4925L5.56386 64.0636L5.568 64.0695L5.57223 64.0754L6.38477 63.4925ZM6.46977 25.6675L7.26981 26.2675L7.27617 26.2589L6.46977 25.6675ZM22.7898 25.6675L23.6842 25.2203L23.6598 25.1716L23.6303 25.1258L22.7898 25.6675ZM23.1298 25.9225L22.8135 24.9738L22.7461 24.9963L22.6826 25.0281L23.1298 25.9225ZM22.7898 52.9525L22.0004 52.3386L21.978 52.3674L21.9577 52.3978L22.7898 52.9525ZM22.7898 36.2925L21.9577 36.8472L21.978 36.8776L22.0004 36.9064L22.7898 36.2925ZM20.0698 36.2925L19.2377 35.7378L19.2153 35.7715L19.1956 35.8069L20.0698 36.2925ZM20.0698 52.9525L19.1956 53.4381L19.2153 53.4735L19.2377 53.5072L20.0698 52.9525ZM24.3848 8.4975C24.3848 8.39347 24.3997 8.33517 24.4096 8.30799C24.4181 8.28461 24.4255 8.27601 24.4319 8.26961L23.0177 6.85539C22.561 7.31203 22.3848 7.90235 22.3848 8.4975H24.3848ZM24.4319 8.26961C24.4383 8.26321 24.4469 8.2558 24.4703 8.24729C24.4974 8.23741 24.5557 8.2225 24.6598 8.2225V6.2225C24.0646 6.2225 23.4743 6.39875 23.0177 6.85539L24.4319 8.26961ZM24.6598 8.2225H38.0898V6.2225H24.6598V8.2225ZM38.0898 8.2225C38.1938 8.2225 38.2521 8.23741 38.2793 8.24729C38.3027 8.2558 38.3113 8.26321 38.3177 8.26961L39.7319 6.85539C39.2752 6.39875 38.6849 6.2225 38.0898 6.2225V8.2225ZM38.3177 8.26961C38.3241 8.27601 38.3315 8.28461 38.34 8.30799C38.3499 8.33517 38.3648 8.39347 38.3648 8.4975H40.3648C40.3648 7.90235 40.1885 7.31203 39.7319 6.85539L38.3177 8.26961ZM38.3648 8.4975V65.4475H40.3648V8.4975H38.3648ZM38.3648 65.4475C38.3648 65.5515 38.3499 65.6098 38.34 65.637C38.3315 65.6604 38.3241 65.669 38.3177 65.6754L39.7319 67.0896C40.1885 66.633 40.3648 66.0427 40.3648 65.4475H38.3648ZM38.3177 65.6754C38.3113 65.6818 38.3027 65.6892 38.2793 65.6977C38.2521 65.7076 38.1938 65.7225 38.0898 65.7225V67.7225C38.6849 67.7225 39.2752 67.5463 39.7319 67.0896L38.3177 65.6754ZM38.0898 65.7225H24.6598V67.7225H38.0898V65.7225ZM24.6598 65.7225C24.5557 65.7225 24.4974 65.7076 24.4703 65.6977C24.4469 65.6892 24.4383 65.6818 24.4319 65.6754L23.0177 67.0896C23.4743 67.5463 24.0646 67.7225 24.6598 67.7225V65.7225ZM24.4319 65.6754C24.4255 65.669 24.4181 65.6604 24.4096 65.637C24.3997 65.6098 24.3848 65.5515 24.3848 65.4475H22.3848C22.3848 66.0427 22.561 66.633 23.0177 67.0896L24.4319 65.6754ZM24.3848 65.4475V63.7475H22.3848V65.4475H24.3848ZM24.3848 63.7475C24.3848 63.538 24.3506 63.1986 24.121 62.8925C23.8509 62.5323 23.4588 62.4075 23.1298 62.4075V64.4075C23.0622 64.4075 22.9559 64.3962 22.8352 64.3426C22.7087 64.2863 22.6005 64.1985 22.521 64.0925C22.4458 63.9922 22.413 63.8984 22.3987 63.8413C22.3847 63.7853 22.3848 63.7501 22.3848 63.7475H24.3848ZM23.577 62.5131C23.3921 62.4207 23.1661 62.3686 22.9207 62.3993C22.6828 62.429 22.4942 62.5279 22.3598 62.6288C22.1162 62.8114 21.9748 63.0563 21.8953 63.2153L23.6842 64.1097C23.718 64.0421 23.69 64.1311 23.5598 64.2288C23.482 64.2871 23.35 64.3612 23.1688 64.3838C22.9801 64.4074 22.8107 64.366 22.6826 64.3019L23.577 62.5131ZM21.9635 63.0992C20.4686 65.2918 18.3005 66.4025 15.3098 66.4025V68.4025C18.8924 68.4025 21.711 67.0199 23.616 64.2258L21.9635 63.0992ZM15.3098 66.4025C11.4546 66.4025 8.82912 65.1843 7.1973 62.9096L5.57223 64.0754C7.68041 67.0141 11.0049 68.4025 15.3098 68.4025V66.4025ZM7.20567 62.9214C5.55606 60.5501 4.66477 57.0436 4.66477 52.2725H2.66477C2.66477 57.248 3.5868 61.2215 5.56386 64.0636L7.20567 62.9214ZM4.66477 52.2725V36.9725H2.66477V52.2725H4.66477ZM4.66477 36.9725C4.66477 32.0223 5.58795 28.5099 7.26977 26.2675L5.66977 25.0675C3.61158 27.8118 2.66477 31.8361 2.66477 36.9725H4.66477ZM7.27617 26.2589C8.90742 24.0344 11.5089 22.8425 15.3098 22.8425V20.8425C11.0639 20.8425 7.77211 22.2006 5.66336 25.0761L7.27617 26.2589ZM15.3098 22.8425C18.3544 22.8425 20.5112 23.9779 21.9492 26.2092L23.6303 25.1258C21.7817 22.2572 18.9518 20.8425 15.3098 20.8425V22.8425ZM21.8953 26.1147C21.9748 26.2737 22.1162 26.5186 22.3598 26.7013C22.4942 26.8021 22.6828 26.901 22.9207 26.9307C23.1661 26.9614 23.3921 26.9094 23.577 26.8169L22.6826 25.0281C22.8107 24.964 22.9801 24.9226 23.1688 24.9462C23.35 24.9688 23.482 25.0429 23.5598 25.1013C23.69 25.1989 23.718 25.2879 23.6842 25.2203L21.8953 26.1147ZM23.446 26.8712C23.7368 26.7743 24.0024 26.5817 24.1785 26.2882C24.3427 26.0145 24.3848 25.7273 24.3848 25.4975H22.3848C22.3848 25.4943 22.3843 25.3913 22.4635 25.2593C22.5546 25.1075 22.6927 25.0141 22.8135 24.9738L23.446 26.8712ZM24.3848 25.4975V8.4975H22.3848V25.4975H24.3848ZM21.4298 54.7175C22.3619 54.7175 23.1143 54.2685 23.6218 53.5072L21.9577 52.3978C21.7852 52.6565 21.631 52.7175 21.4298 52.7175V54.7175ZM23.5791 53.5664C24.1411 52.8439 24.3848 51.9612 24.3848 50.9975H22.3848C22.3848 51.6204 22.2318 52.0411 22.0004 52.3386L23.5791 53.5664ZM24.3848 50.9975V38.2475H22.3848V50.9975H24.3848ZM24.3848 38.2475C24.3848 37.2838 24.1411 36.4011 23.5791 35.6786L22.0004 36.9064C22.2318 37.2039 22.3848 37.6246 22.3848 38.2475H24.3848ZM23.6218 35.7378C23.1143 34.9765 22.3619 34.5275 21.4298 34.5275V36.5275C21.631 36.5275 21.7852 36.5885 21.9577 36.8472L23.6218 35.7378ZM21.4298 34.5275C20.4976 34.5275 19.7452 34.9765 19.2377 35.7378L20.9018 36.8472C21.0743 36.5885 21.2286 36.5275 21.4298 36.5275V34.5275ZM19.1956 35.8069C18.8053 36.5093 18.6448 37.3427 18.6448 38.2475H20.6448C20.6448 37.5656 20.7675 37.0957 20.9439 36.7781L19.1956 35.8069ZM18.6448 38.2475V50.9975H20.6448V38.2475H18.6448ZM18.6448 50.9975C18.6448 51.9023 18.8053 52.7357 19.1956 53.4381L20.9439 52.4669C20.7675 52.1493 20.6448 51.6794 20.6448 50.9975H18.6448ZM19.2377 53.5072C19.7452 54.2685 20.4976 54.7175 21.4298 54.7175V52.7175C21.2286 52.7175 21.0743 52.6565 20.9018 52.3978L19.2377 53.5072ZM78.2064 48.2775L78.9136 48.9846L78.9136 48.9846L78.2064 48.2775ZM59.2514 52.9525L58.4194 53.5072L58.4397 53.5376L58.4621 53.5664L59.2514 52.9525ZM61.9714 53.1225L61.2122 52.4717L61.1834 52.5053L61.1577 52.5413L61.9714 53.1225ZM62.6514 51.5925L61.7097 51.2562L61.6822 51.3332L61.6676 51.4136L62.6514 51.5925ZM64.0964 50.4875L64.0134 51.484L64.0223 51.4848L64.0312 51.4854L64.0964 50.4875ZM77.1014 51.3375L77.2336 50.3463L77.2003 50.3418L77.1667 50.3396L77.1014 51.3375ZM78.2914 52.6975L77.294 52.6263L77.2935 52.6335L77.2931 52.6408L78.2914 52.6975ZM73.5314 63.8325L74.1746 64.5982L74.176 64.597L73.5314 63.8325ZM47.4364 63.4925L46.7868 64.2527L46.7942 64.2591L46.8017 64.2652L47.4364 63.4925ZM47.5214 26.0075L48.1723 26.7668L48.1799 26.7601L47.5214 26.0075ZM73.7864 26.0075L73.1212 26.7542L73.1284 26.7605L73.1357 26.7668L73.7864 26.0075ZM59.2514 36.2925L58.4621 35.6786L58.4397 35.7074L58.4194 35.7378L59.2514 36.2925ZM62.0564 36.2925L61.2244 36.8472L61.2244 36.8472L62.0564 36.2925ZM77.5464 47.3425C77.5464 47.4465 77.5315 47.5048 77.5217 47.532C77.5131 47.5554 77.5057 47.564 77.4993 47.5704L78.9136 48.9846C79.3702 48.528 79.5464 47.9376 79.5464 47.3425H77.5464ZM77.4993 47.5704C77.4929 47.5768 77.4843 47.5842 77.461 47.5927C77.4338 47.6026 77.3755 47.6175 77.2714 47.6175V49.6175C77.8666 49.6175 78.4569 49.4412 78.9136 48.9846L77.4993 47.5704ZM77.2714 47.6175H59.2514V49.6175H77.2714V47.6175ZM59.2514 47.6175C58.9273 47.6175 58.5005 47.6992 58.1618 48.0379C57.8232 48.3766 57.7414 48.8034 57.7414 49.1275H59.7414C59.7414 49.1116 59.7447 49.2834 59.5761 49.4521C59.4074 49.6208 59.2356 49.6175 59.2514 49.6175V47.6175ZM57.7414 49.1275V50.9975H59.7414V49.1275H57.7414ZM57.7414 50.9975C57.7414 51.9307 57.9418 52.7908 58.4194 53.5072L60.0835 52.3978C59.8811 52.0942 59.7414 51.6509 59.7414 50.9975H57.7414ZM58.4621 53.5664C59.0181 54.2813 59.7752 54.7175 60.6964 54.7175V52.7175C60.4843 52.7175 60.2781 52.6437 60.0408 52.3386L58.4621 53.5664ZM60.6964 54.7175C61.526 54.7175 62.2817 54.4086 62.7852 53.7037L61.1577 52.5413C61.0945 52.6298 61.0003 52.7175 60.6964 52.7175V54.7175ZM62.7307 53.7733C63.2083 53.216 63.497 52.5321 63.6353 51.7714L61.6676 51.4136C61.5792 51.8996 61.4145 52.2356 61.2122 52.4717L62.7307 53.7733ZM63.5932 51.9288C63.6943 51.6458 63.7939 51.5452 63.8326 51.5156C63.8513 51.5013 63.8874 51.4735 64.0134 51.484L64.1795 49.491C63.6255 49.4448 63.0807 49.5728 62.6177 49.9269C62.1748 50.2656 61.8919 50.7459 61.7097 51.2562L63.5932 51.9288ZM64.0312 51.4854L77.0362 52.3354L77.1667 50.3396L64.1617 49.4896L64.0312 51.4854ZM76.9693 52.3287C77.2547 52.3668 77.3013 52.441 77.2839 52.421C77.2556 52.3887 77.3096 52.4072 77.294 52.6263L79.2889 52.7687C79.3299 52.1944 79.214 51.5897 78.789 51.104C78.3749 50.6307 77.7982 50.4216 77.2336 50.3463L76.9693 52.3287ZM77.2931 52.6408C77.0201 57.4451 75.5051 60.8604 72.8869 63.068L74.176 64.597C77.3378 61.9313 78.9961 57.9232 79.2898 52.7542L77.2931 52.6408ZM72.8883 63.0668C70.3107 65.2319 66.307 66.4025 60.6964 66.4025V68.4025C66.5326 68.4025 71.0855 67.1931 74.1746 64.5982L72.8883 63.0668ZM60.6964 66.4025C55.174 66.4025 51.0082 65.1323 48.0712 62.7198L46.8017 64.2652C50.2114 67.066 54.8855 68.4025 60.6964 68.4025V66.4025ZM48.0861 62.7323C45.2314 60.2928 43.7614 56.8533 43.7614 52.2725H41.7614C41.7614 57.3251 43.4081 61.3655 46.7868 64.2527L48.0861 62.7323ZM43.7614 52.2725V36.9725H41.7614V52.2725H43.7614ZM43.7614 36.9725C43.7614 32.6421 45.244 29.2767 48.1722 26.7668L46.8707 25.2482C43.4523 28.1783 41.7614 32.1229 41.7614 36.9725H43.7614ZM48.1799 26.7601C51.118 24.1893 55.2475 22.8425 60.6964 22.8425V20.8425C54.9254 20.8425 50.2716 22.2724 46.8629 25.2549L48.1799 26.7601ZM60.6964 22.8425C66.1466 22.8425 70.2428 24.1898 73.1212 26.7542L74.4517 25.2608C71.0967 22.2719 66.4663 20.8425 60.6964 20.8425V22.8425ZM73.1357 26.7668C76.0639 29.2767 77.5464 32.6421 77.5464 36.9725H79.5464C79.5464 32.1229 77.8556 28.1783 74.4372 25.2482L73.1357 26.7668ZM77.5464 36.9725V47.3425H79.5464V36.9725H77.5464ZM60.6964 34.5275C59.7752 34.5275 59.0181 34.9637 58.4621 35.6786L60.0408 36.9064C60.2781 36.6013 60.4843 36.5275 60.6964 36.5275V34.5275ZM58.4194 35.7378C57.9418 36.4542 57.7414 37.3143 57.7414 38.2475H59.7414C59.7414 37.5941 59.8811 37.1508 60.0835 36.8472L58.4194 35.7378ZM57.7414 38.2475V40.2875H59.7414V38.2475H57.7414ZM57.7414 40.2875C57.7414 40.6116 57.8232 41.0384 58.1618 41.3771C58.5005 41.7158 58.9273 41.7975 59.2514 41.7975V39.7975C59.2356 39.7975 59.4074 39.7942 59.5761 39.9629C59.7447 40.1316 59.7414 40.3034 59.7414 40.2875H57.7414ZM59.2514 41.7975H62.0564V39.7975H59.2514V41.7975ZM62.0564 41.7975C62.3806 41.7975 62.8074 41.7158 63.1461 41.3771C63.4847 41.0384 63.5664 40.6116 63.5664 40.2875H61.5664C61.5664 40.3034 61.5632 40.1316 61.7318 39.9629C61.9005 39.7942 62.0723 39.7975 62.0564 39.7975V41.7975ZM63.5664 40.2875V38.2475H61.5664V40.2875H63.5664ZM63.5664 38.2475C63.5664 37.3143 63.3661 36.4542 62.8885 35.7378L61.2244 36.8472C61.4268 37.1508 61.5664 37.5941 61.5664 38.2475H63.5664ZM62.8885 35.7378C62.381 34.9765 61.6286 34.5275 60.6964 34.5275V36.5275C60.8976 36.5275 61.0519 36.5885 61.2244 36.8472L62.8885 35.7378ZM85.7781 63.5775L85.1584 64.3624L85.1651 64.3676L85.7781 63.5775ZM81.2731 52.2725L81.9802 52.9796L81.9802 52.9796L81.2731 52.2725ZM95.8931 52.2725L95.186 52.9796L95.2362 53.0299L95.2931 53.0725L95.8931 52.2725ZM99.8881 55.2475L100.595 55.9546L100.627 55.9225L100.656 55.8877L99.8881 55.2475ZM99.0381 52.1875L98.5675 53.0699L98.591 53.0824L98.6152 53.0937L99.0381 52.1875ZM94.7881 50.6575L95.0628 49.696L95.0468 49.6914L95.0306 49.6874L94.7881 50.6575ZM92.4081 49.9775L92.1026 50.9297L92.1098 50.932L92.4081 49.9775ZM84.6731 45.3025L83.9476 45.9908L83.9567 46.0003L83.966 46.0096L84.6731 45.3025ZM86.1181 25.7525L85.4696 24.9913L85.4696 24.9913L86.1181 25.7525ZM110.683 26.0925L110.01 26.8324L110.683 26.0925ZM100.823 37.8225L100.116 38.5296L100.116 38.5296L100.823 37.8225ZM99.8881 34.7625L99.1288 35.4133L99.1538 35.4425L99.181 35.4696L99.8881 34.7625ZM97.2531 34.8475L96.4531 34.2475L96.4276 34.2815L96.4051 34.3175L97.2531 34.8475ZM98.4431 39.0125L97.9421 39.8779L97.9516 39.8834L97.9612 39.8887L98.4431 39.0125ZM102.778 40.7125L103.058 39.7525L103.057 39.7522L102.778 40.7125ZM112.638 45.3025L112.038 46.1025L112.038 46.1025L112.638 45.3025ZM111.533 63.8325L112.133 64.6325L112.135 64.6308L111.533 63.8325ZM98.8681 66.4025C93.5815 66.4025 89.455 65.1646 86.3911 62.7874L85.1651 64.3676C88.6745 67.0904 93.2747 68.4025 98.8681 68.4025V66.4025ZM86.3977 62.7926C83.4132 60.4364 81.9331 57.3566 81.9331 53.4625H79.9331C79.9331 57.9551 81.683 61.6186 85.1584 64.3624L86.3977 62.7926ZM81.9331 53.4625V53.2075H79.9331V53.4625H81.9331ZM81.9331 53.2075C81.9331 53.1035 81.948 53.0452 81.9579 53.018C81.9664 52.9946 81.9738 52.986 81.9802 52.9796L80.566 51.5654C80.1093 52.022 79.9331 52.6124 79.9331 53.2075H81.9331ZM81.9802 52.9796C81.9866 52.9732 81.9952 52.9658 82.0186 52.9573C82.0458 52.9474 82.1041 52.9325 82.2081 52.9325V50.9325C81.6129 50.9325 81.0226 51.1088 80.566 51.5654L81.9802 52.9796ZM82.2081 52.9325H94.9581V50.9325H82.2081V52.9325ZM94.9581 52.9325C95.0621 52.9325 95.1204 52.9474 95.1476 52.9573C95.171 52.9658 95.1796 52.9732 95.186 52.9796L96.6002 51.5654C96.1436 51.1088 95.5532 50.9325 94.9581 50.9325V52.9325ZM95.2931 53.0725C95.2851 53.0665 95.2733 53.056 95.261 53.0406C95.2486 53.0252 95.2398 53.0099 95.2343 52.9974C95.2231 52.9723 95.2331 52.9775 95.2331 53.0375H97.2331C97.2331 52.4535 97.0233 51.8701 96.4931 51.4725L95.2931 53.0725ZM95.2331 53.0375C95.2331 54.0975 95.5596 55.0518 96.3337 55.7399L97.6625 54.2451C97.4166 54.0266 97.2331 53.6775 97.2331 53.0375H95.2331ZM96.3337 55.7399C97.008 56.3393 97.8059 56.6725 98.6981 56.6725V54.6725C98.3436 54.6725 98.0081 54.5524 97.6625 54.2451L96.3337 55.7399ZM98.6981 56.6725C99.3973 56.6725 100.077 56.4731 100.595 55.9546L99.181 54.5404C99.1328 54.5886 99.0188 54.6725 98.6981 54.6725V56.6725ZM100.656 55.8877C101.093 55.3633 101.313 54.7386 101.313 54.0575H99.3131C99.3131 54.2831 99.2495 54.4517 99.1199 54.6073L100.656 55.8877ZM101.313 54.0575C101.313 53.4579 101.16 52.8874 100.821 52.3892C100.485 51.8969 100.009 51.5373 99.461 51.2813L98.6152 53.0937C98.9167 53.2344 99.0787 53.3848 99.1681 53.5158C99.2534 53.6409 99.3131 53.8071 99.3131 54.0575H101.313ZM99.5087 51.3052C98.559 50.7987 97.0553 50.2653 95.0628 49.696L94.5134 51.619C96.4875 52.1831 97.8171 52.6697 98.5675 53.0699L99.5087 51.3052ZM95.0306 49.6874C94.3746 49.5233 93.6006 49.3025 92.7064 49.023L92.1098 50.932C93.0289 51.2192 93.8416 51.4517 94.5456 51.6276L95.0306 49.6874ZM92.7135 49.0253C89.8561 48.1087 87.417 46.6322 85.3802 44.5954L83.966 46.0096C86.2359 48.2795 88.9534 49.9196 92.1027 50.9297L92.7135 49.0253ZM85.3985 44.6142C83.519 42.6331 82.5281 39.8992 82.5281 36.2925H80.5281C80.5281 40.2791 81.6339 43.552 83.9476 45.9908L85.3985 44.6142ZM82.5281 36.2925C82.5281 32.1326 83.9535 28.9101 86.7666 26.5137L85.4696 24.9913C82.1627 27.8083 80.5281 31.6124 80.5281 36.2925H82.5281ZM86.7666 26.5137C89.6052 24.0956 93.3799 22.8425 98.1881 22.8425V20.8425C93.0229 20.8425 88.751 22.196 85.4696 24.9913L86.7666 26.5137ZM98.1881 22.8425C103.214 22.8425 107.119 24.2038 110.01 26.8324L111.356 25.3526C108.014 22.3145 103.588 20.8425 98.1881 20.8425V22.8425ZM110.01 26.8324C112.896 29.4555 114.358 32.9152 114.358 37.3125H116.358C116.358 32.4165 114.704 28.3962 111.356 25.3526L110.01 26.8324ZM114.358 37.3125C114.358 37.2849 114.362 37.253 114.371 37.2195C114.38 37.1861 114.392 37.1576 114.405 37.1351C114.43 37.0909 114.448 37.0853 114.418 37.1075L115.618 38.7075C116.027 38.401 116.358 37.932 116.358 37.3125H114.358ZM114.418 37.1075C114.418 37.1077 114.414 37.1107 114.404 37.1153C114.394 37.12 114.377 37.1269 114.351 37.134C114.298 37.1485 114.212 37.1625 114.083 37.1625V39.1625C114.612 39.1625 115.161 39.0502 115.618 38.7075L114.418 37.1075ZM114.083 37.1625H101.758V39.1625H114.083V37.1625ZM101.758 37.1625C101.654 37.1625 101.596 37.1476 101.569 37.1377C101.545 37.1292 101.537 37.1218 101.53 37.1154L100.116 38.5296C100.573 38.9862 101.163 39.1625 101.758 39.1625V37.1625ZM101.53 37.1154C101.524 37.109 101.516 37.1004 101.508 37.077C101.498 37.0498 101.483 36.9915 101.483 36.8875H99.4831C99.4831 37.4826 99.6593 38.073 100.116 38.5296L101.53 37.1154ZM101.483 36.8875V36.3775H99.4831V36.8875H101.483ZM101.483 36.3775C101.483 35.4923 101.218 34.6782 100.595 34.0554L99.181 35.4696C99.3515 35.6402 99.4831 35.9027 99.4831 36.3775H101.483ZM100.647 34.1117C100.123 33.4996 99.4231 33.1675 98.6131 33.1675V35.1675C98.8231 35.1675 98.9735 35.2321 99.1288 35.4133L100.647 34.1117ZM98.6131 33.1675C97.7317 33.1675 96.9819 33.5424 96.4531 34.2475L98.0531 35.4475C98.2042 35.246 98.3612 35.1675 98.6131 35.1675V33.1675ZM96.4051 34.3175C96.0164 34.9395 95.8281 35.6352 95.8281 36.3775H97.8281C97.8281 35.9865 97.9231 35.6622 98.1011 35.3775L96.4051 34.3175ZM95.8281 36.3775C95.8281 37.908 96.5932 39.097 97.9421 39.8779L98.9441 38.1471C98.1397 37.6813 97.8281 37.1136 97.8281 36.3775H95.8281ZM97.9612 39.8887C99.1793 40.5587 100.699 41.1501 102.499 41.6728L103.057 39.7522C101.344 39.2549 99.9735 38.713 98.925 38.1363L97.9612 39.8887ZM102.498 41.6725C106.502 42.8403 109.669 44.3256 112.038 46.1025L113.238 44.5025C110.621 42.5394 107.214 40.9647 103.058 39.7525L102.498 41.6725ZM112.038 46.1025C114.22 47.7389 115.378 50.2661 115.378 53.8875H117.378C117.378 49.8022 116.043 46.6061 113.238 44.5025L112.038 46.1025ZM115.378 53.8875C115.378 57.7805 113.9 60.7944 110.931 63.0342L112.135 64.6308C115.626 61.9973 117.378 58.3812 117.378 53.8875H115.378ZM110.933 63.0325C107.982 65.2459 103.992 66.4025 98.8681 66.4025V68.4025C104.284 68.4025 108.738 67.1792 112.133 64.6325L110.933 63.0325ZM137.584 52.5275L136.925 53.2801L136.953 53.3049L136.984 53.3275L137.584 52.5275ZM139.539 52.9525V51.9525H139.505L139.472 51.9547L139.539 52.9525ZM140.644 53.2925L141.351 52.5854L141.351 52.5854L140.644 53.2925ZM140.644 66.3825L141.351 67.0896L141.351 67.0896L140.644 66.3825ZM125.089 64.7675L124.583 65.6305L124.591 65.6352L124.599 65.6396L125.089 64.7675ZM117.864 33.2325L118.571 32.5254L118.571 32.5254L117.864 33.2325ZM117.864 22.8625L118.571 23.5696L118.571 23.5696L117.864 22.8625ZM121.944 11.9825L121.236 11.2754L121.236 11.2754L121.944 11.9825ZM136.564 11.9825L137.271 11.2754L137.271 11.2754L136.564 11.9825ZM141.259 32.2975C141.259 32.4015 141.244 32.4598 141.234 32.487C141.225 32.5104 141.218 32.519 141.211 32.5254L142.626 33.9396C143.082 33.483 143.259 32.8926 143.259 32.2975H141.259ZM141.211 32.5254C141.205 32.5318 141.196 32.5392 141.173 32.5477C141.146 32.5576 141.088 32.5725 140.984 32.5725V34.5725C141.579 34.5725 142.169 34.3962 142.626 33.9396L141.211 32.5254ZM140.984 32.5725H137.414V34.5725H140.984V32.5725ZM137.414 32.5725C137.089 32.5725 136.663 32.6542 136.324 32.9929C135.985 33.3316 135.904 33.7584 135.904 34.0825H137.904C137.904 34.0666 137.907 34.2384 137.738 34.4071C137.57 34.5758 137.398 34.5725 137.414 34.5725V32.5725ZM135.904 34.0825V50.4025H137.904V34.0825H135.904ZM135.904 50.4025C135.904 51.5192 136.143 52.596 136.925 53.2801L138.242 51.7749C138.117 51.6657 137.904 51.3258 137.904 50.4025H135.904ZM136.984 53.3275C137.704 53.8681 138.632 54.0151 139.605 53.9503L139.472 51.9547C138.745 52.0032 138.369 51.8669 138.184 51.7275L136.984 53.3275ZM139.539 53.9525H139.709V51.9525H139.539V53.9525ZM139.709 53.9525C139.813 53.9525 139.871 53.9674 139.898 53.9773C139.921 53.9858 139.93 53.9932 139.936 53.9996L141.351 52.5854C140.894 52.1288 140.304 51.9525 139.709 51.9525V53.9525ZM139.936 53.9996C139.943 54.006 139.95 54.0146 139.959 54.038C139.969 54.0652 139.984 54.1235 139.984 54.2275H141.984C141.984 53.6324 141.807 53.042 141.351 52.5854L139.936 53.9996ZM139.984 54.2275V65.4475H141.984V54.2275H139.984ZM139.984 65.4475C139.984 65.5515 139.969 65.6098 139.959 65.637C139.95 65.6604 139.943 65.669 139.936 65.6754L141.351 67.0896C141.807 66.633 141.984 66.0426 141.984 65.4475H139.984ZM139.936 65.6754C139.93 65.6818 139.921 65.6892 139.898 65.6977C139.871 65.7076 139.813 65.7225 139.709 65.7225V67.7225C140.304 67.7225 140.894 67.5463 141.351 67.0896L139.936 65.6754ZM139.709 65.7225H135.629V67.7225H139.709V65.7225ZM135.629 65.7225C130.983 65.7225 127.677 65.0729 125.578 63.8954L124.599 65.6396C127.147 67.0687 130.867 67.7225 135.629 67.7225V65.7225ZM125.594 63.9045C123.704 62.798 122.604 60.5939 122.604 56.8625H120.604C120.604 60.9511 121.827 64.017 124.583 65.6305L125.594 63.9045ZM122.604 56.8625V34.0825H120.604V56.8625H122.604ZM122.604 34.0825C122.604 33.7584 122.522 33.3316 122.183 32.9929C121.845 32.6542 121.418 32.5725 121.094 32.5725V34.5725C121.109 34.5725 120.938 34.5758 120.769 34.4071C120.6 34.2384 120.604 34.0666 120.604 34.0825H122.604ZM121.094 32.5725H118.799V34.5725H121.094V32.5725ZM118.799 32.5725C118.695 32.5725 118.636 32.5576 118.609 32.5477C118.586 32.5392 118.577 32.5318 118.571 32.5254L117.156 33.9396C117.613 34.3962 118.203 34.5725 118.799 34.5725V32.5725ZM118.571 32.5254C118.564 32.519 118.557 32.5104 118.548 32.487C118.539 32.4598 118.524 32.4015 118.524 32.2975H116.524C116.524 32.8926 116.7 33.483 117.156 33.9396L118.571 32.5254ZM118.524 32.2975V23.7975H116.524V32.2975H118.524ZM118.524 23.7975C118.524 23.6935 118.539 23.6352 118.548 23.608C118.557 23.5846 118.564 23.576 118.571 23.5696L117.156 22.1554C116.7 22.612 116.524 23.2024 116.524 23.7975H118.524ZM118.571 23.5696C118.577 23.5632 118.586 23.5558 118.609 23.5473C118.636 23.5374 118.695 23.5225 118.799 23.5225V21.5225C118.203 21.5225 117.613 21.6988 117.156 22.1554L118.571 23.5696ZM118.799 23.5225H121.094V21.5225H118.799V23.5225ZM121.094 23.5225C121.418 23.5225 121.845 23.4408 122.183 23.1021C122.522 22.7634 122.604 22.3366 122.604 22.0125H120.604C120.604 22.0284 120.6 21.8566 120.769 21.6879C120.938 21.5192 121.109 21.5225 121.094 21.5225V23.5225ZM122.604 22.0125V12.9175H120.604V22.0125H122.604ZM122.604 12.9175C122.604 12.8135 122.619 12.7552 122.628 12.728C122.637 12.7046 122.644 12.696 122.651 12.6896L121.236 11.2754C120.78 11.732 120.604 12.3224 120.604 12.9175H122.604ZM122.651 12.6896C122.657 12.6832 122.666 12.6758 122.689 12.6673C122.716 12.6574 122.775 12.6425 122.879 12.6425V10.6425C122.283 10.6425 121.693 10.8188 121.236 11.2754L122.651 12.6896ZM122.879 12.6425H135.629V10.6425H122.879V12.6425ZM135.629 12.6425C135.733 12.6425 135.791 12.6574 135.818 12.6673C135.841 12.6758 135.85 12.6832 135.856 12.6896L137.271 11.2754C136.814 10.8188 136.224 10.6425 135.629 10.6425V12.6425ZM135.856 12.6896C135.863 12.696 135.87 12.7046 135.879 12.728C135.889 12.7552 135.904 12.8135 135.904 12.9175H137.904C137.904 12.3224 137.727 11.732 137.271 11.2754L135.856 12.6896ZM135.904 12.9175V22.0125H137.904V12.9175H135.904ZM135.904 22.0125C135.904 22.3366 135.985 22.7634 136.324 23.1021C136.663 23.4408 137.089 23.5225 137.414 23.5225V21.5225C137.398 21.5225 137.57 21.5192 137.738 21.6879C137.907 21.8566 137.904 22.0284 137.904 22.0125H135.904ZM137.414 23.5225H140.984V21.5225H137.414V23.5225ZM140.984 23.5225C141.088 23.5225 141.146 23.5374 141.173 23.5473C141.196 23.5558 141.205 23.5632 141.211 23.5696L142.626 22.1554C142.169 21.6988 141.579 21.5225 140.984 21.5225V23.5225ZM141.211 23.5696C141.218 23.576 141.225 23.5846 141.234 23.608C141.244 23.6352 141.259 23.6935 141.259 23.7975H143.259C143.259 23.2024 143.082 22.612 142.626 22.1554L141.211 23.5696ZM141.259 23.7975V32.2975H143.259V23.7975H141.259ZM146.988 17.3375L146.268 18.0311L146.281 18.0447L146.294 18.0578L146.988 17.3375ZM146.988 5.7775L146.294 5.05718L146.288 5.06373L146.281 5.0704L146.988 5.7775ZM158.463 5.7775L157.756 6.48461L157.763 6.49128L157.769 6.49782L158.463 5.7775ZM158.463 17.2525L157.756 16.5454L157.749 16.5521L157.743 16.5589L158.463 17.2525ZM145.288 66.3825L144.581 67.0896L144.581 67.0896L145.288 66.3825ZM145.288 22.8625L144.581 22.1554L144.581 22.1554L145.288 22.8625ZM160.588 22.8625L161.295 22.1554L161.295 22.1554L160.588 22.8625ZM160.588 66.3825L161.295 67.0896L161.295 67.0896L160.588 66.3825ZM152.768 18.5475C150.677 18.5475 149.007 17.8935 147.682 16.6172L146.294 18.0578C148.029 19.7282 150.213 20.5475 152.768 20.5475V18.5475ZM147.708 16.6439C146.432 15.3185 145.778 13.6487 145.778 11.5575H143.778C143.778 14.113 144.597 16.2965 146.268 18.0311L147.708 16.6439ZM145.778 11.5575C145.778 9.40172 146.436 7.74328 147.695 6.48461L146.281 5.0704C144.593 6.75839 143.778 8.95328 143.778 11.5575H145.778ZM147.682 6.49782C149.007 5.22153 150.677 4.5675 152.768 4.5675V2.5675C150.213 2.5675 148.029 3.3868 146.294 5.05718L147.682 6.49782ZM152.768 4.5675C154.86 4.5675 156.493 5.22117 157.756 6.48461L159.17 5.0704C157.487 3.38716 155.323 2.5675 152.768 2.5675V4.5675ZM157.769 6.49782C159.079 7.75906 159.758 9.41326 159.758 11.5575H161.758C161.758 8.94174 160.907 6.74261 159.157 5.05718L157.769 6.49782ZM159.758 11.5575C159.758 13.573 159.089 15.2126 157.756 16.5454L159.17 17.9596C160.897 16.2324 161.758 14.0753 161.758 11.5575H159.758ZM157.743 16.5589C156.477 17.8737 154.848 18.5475 152.768 18.5475V20.5475C155.335 20.5475 157.503 19.6913 159.183 17.9461L157.743 16.5589ZM146.223 65.7225C146.119 65.7225 146.061 65.7076 146.034 65.6977C146.01 65.6892 146.002 65.6818 145.995 65.6754L144.581 67.0896C145.038 67.5463 145.628 67.7225 146.223 67.7225V65.7225ZM145.995 65.6754C145.989 65.669 145.981 65.6604 145.973 65.637C145.963 65.6098 145.948 65.5515 145.948 65.4475H143.948C143.948 66.0426 144.124 66.633 144.581 67.0896L145.995 65.6754ZM145.948 65.4475V23.7975H143.948V65.4475H145.948ZM145.948 23.7975C145.948 23.6935 145.963 23.6352 145.973 23.608C145.981 23.5846 145.989 23.576 145.995 23.5696L144.581 22.1554C144.124 22.612 143.948 23.2024 143.948 23.7975H145.948ZM145.995 23.5696C146.002 23.5632 146.01 23.5558 146.034 23.5473C146.061 23.5374 146.119 23.5225 146.223 23.5225V21.5225C145.628 21.5225 145.038 21.6988 144.581 22.1554L145.995 23.5696ZM146.223 23.5225H159.653V21.5225H146.223V23.5225ZM159.653 23.5225C159.757 23.5225 159.815 23.5374 159.843 23.5473C159.866 23.5558 159.875 23.5632 159.881 23.5696L161.295 22.1554C160.839 21.6988 160.248 21.5225 159.653 21.5225V23.5225ZM159.881 23.5696C159.887 23.576 159.895 23.5846 159.903 23.608C159.913 23.6352 159.928 23.6935 159.928 23.7975H161.928C161.928 23.2024 161.752 22.612 161.295 22.1554L159.881 23.5696ZM159.928 23.7975V65.4475H161.928V23.7975H159.928ZM159.928 65.4475C159.928 65.5515 159.913 65.6098 159.903 65.637C159.895 65.6604 159.887 65.669 159.881 65.6754L161.295 67.0896C161.752 66.633 161.928 66.0426 161.928 65.4475H159.928ZM159.881 65.6754C159.875 65.6818 159.866 65.6892 159.843 65.6977C159.815 65.7076 159.757 65.7225 159.653 65.7225V67.7225C160.248 67.7225 160.839 67.5463 161.295 67.0896L159.881 65.6754ZM159.653 65.7225H146.223V67.7225H159.653V65.7225ZM184.353 66.3825L183.646 67.0896L184.353 66.3825ZM179.933 66.3825L180.64 67.0896L180.64 67.0896L179.933 66.3825ZM164.633 66.3825L163.926 67.0896L163.926 67.0896L164.633 66.3825ZM164.633 22.8625L163.926 22.1554L163.926 22.1554L164.633 22.8625ZM179.933 22.8625L180.64 22.1554L180.64 22.1554L179.933 22.8625ZM181.463 24.4775L180.733 23.7943L180.701 23.8276L180.674 23.8636L181.463 24.4775ZM187.923 22.8425C191.721 22.8425 194.413 24.0341 196.19 26.2869C198.003 28.5848 198.993 32.1469 198.993 37.1425H200.993C200.993 31.9381 199.971 27.8502 197.76 25.0481C195.514 22.2009 192.172 20.8425 187.923 20.8425V22.8425ZM198.993 37.1425V65.4475H200.993V37.1425H198.993ZM198.993 65.4475C198.993 65.5515 198.978 65.6098 198.968 65.637C198.96 65.6604 198.952 65.669 198.946 65.6754L200.36 67.0896C200.817 66.633 200.993 66.0427 200.993 65.4475H198.993ZM198.946 65.6754C198.939 65.6818 198.931 65.6892 198.907 65.6977C198.88 65.7076 198.822 65.7225 198.718 65.7225V67.7225C199.313 67.7225 199.903 67.5463 200.36 67.0896L198.946 65.6754ZM198.718 65.7225H185.288V67.7225H198.718V65.7225ZM185.288 65.7225C185.184 65.7225 185.126 65.7076 185.098 65.6977C185.075 65.6892 185.066 65.6818 185.06 65.6754L183.646 67.0896C184.102 67.5463 184.693 67.7225 185.288 67.7225V65.7225ZM185.06 65.6754C185.054 65.669 185.046 65.6604 185.038 65.637C185.028 65.6098 185.013 65.5515 185.013 65.4475H183.013C183.013 66.0427 183.189 66.633 183.646 67.0896L185.06 65.6754ZM185.013 65.4475V38.2475H183.013V65.4475H185.013ZM185.013 38.2475C185.013 37.2633 184.857 36.3514 184.403 35.6588C183.9 34.8928 183.121 34.5275 182.228 34.5275V36.5275C182.525 36.5275 182.638 36.6155 182.731 36.7562C182.871 36.9702 183.013 37.4184 183.013 38.2475H185.013ZM182.228 34.5275C181.316 34.5275 180.497 34.8629 179.95 35.6239C179.446 36.3238 179.273 37.2511 179.273 38.2475H181.273C181.273 37.4306 181.425 36.9979 181.574 36.7911C181.678 36.6455 181.837 36.5275 182.228 36.5275V34.5275ZM179.273 38.2475V65.4475H181.273V38.2475H179.273ZM179.273 65.4475C179.273 65.5515 179.258 65.6098 179.248 65.637C179.24 65.6604 179.232 65.669 179.226 65.6754L180.64 67.0896C181.097 66.633 181.273 66.0426 181.273 65.4475H179.273ZM179.226 65.6754C179.219 65.6818 179.211 65.6892 179.187 65.6977C179.16 65.7076 179.102 65.7225 178.998 65.7225V67.7225C179.593 67.7225 180.183 67.5463 180.64 67.0896L179.226 65.6754ZM178.998 65.7225H165.568V67.7225H178.998V65.7225ZM165.568 65.7225C165.464 65.7225 165.406 65.7076 165.378 65.6977C165.355 65.6892 165.346 65.6818 165.34 65.6754L163.926 67.0896C164.382 67.5463 164.973 67.7225 165.568 67.7225V65.7225ZM165.34 65.6754C165.334 65.669 165.326 65.6604 165.318 65.637C165.308 65.6098 165.293 65.5515 165.293 65.4475H163.293C163.293 66.0426 163.469 66.633 163.926 67.0896L165.34 65.6754ZM165.293 65.4475V23.7975H163.293V65.4475H165.293ZM165.293 23.7975C165.293 23.6935 165.308 23.6352 165.318 23.608C165.326 23.5846 165.334 23.576 165.34 23.5696L163.926 22.1554C163.469 22.612 163.293 23.2024 163.293 23.7975H165.293ZM165.34 23.5696C165.346 23.5632 165.355 23.5558 165.378 23.5473C165.406 23.5374 165.464 23.5225 165.568 23.5225V21.5225C164.973 21.5225 164.382 21.6988 163.926 22.1554L165.34 23.5696ZM165.568 23.5225H178.998V21.5225H165.568V23.5225ZM178.998 23.5225C179.102 23.5225 179.16 23.5374 179.187 23.5473C179.211 23.5558 179.219 23.5632 179.226 23.5696L180.64 22.1554C180.183 21.6988 179.593 21.5225 178.998 21.5225V23.5225ZM179.226 23.5696C179.232 23.576 179.24 23.5846 179.248 23.608C179.258 23.6352 179.273 23.6935 179.273 23.7975H181.273C181.273 23.2024 181.097 22.612 180.64 22.1554L179.226 23.5696ZM179.273 23.7975V25.0725H181.273V23.7975H179.273ZM179.273 25.0725C179.273 25.2833 179.326 25.6251 179.608 25.9071C179.89 26.1891 180.232 26.2425 180.443 26.2425V24.2425C180.54 24.2425 180.797 24.2675 181.022 24.4929C181.248 24.7182 181.273 24.975 181.273 25.0725H179.273ZM180.443 26.2425C180.885 26.2425 181.25 26.0469 181.51 25.8513C181.778 25.6504 182.024 25.3842 182.252 25.0914L180.674 23.8636C180.505 24.0808 180.383 24.1971 180.31 24.2513C180.231 24.3106 180.284 24.2425 180.443 24.2425V26.2425ZM182.193 25.1607C183.626 23.6289 185.503 22.8425 187.923 22.8425V20.8425C185.016 20.8425 182.586 21.8127 180.733 23.7943L182.193 25.1607ZM207.891 63.4925L207.241 64.2527L207.248 64.2591L207.256 64.2652L207.891 63.4925ZM207.976 26.0075L208.626 26.7668L208.627 26.7658L207.976 26.0075ZM234.581 26.0075L233.922 26.7601L233.93 26.7668L234.581 26.0075ZM234.666 63.4925L235.307 64.2596L235.315 64.2527L234.666 63.4925ZM222.766 52.9525L221.976 52.3386L221.954 52.3674L221.933 52.3978L222.766 52.9525ZM222.766 36.2925L221.933 36.8472L221.954 36.8776L221.976 36.9064L222.766 36.2925ZM219.791 52.9525L219.001 53.5664L219.001 53.5664L219.791 52.9525ZM221.321 66.4025C215.679 66.4025 211.459 65.1297 208.525 62.7198L207.256 64.2652C210.669 67.0686 215.402 68.4025 221.321 68.4025V66.4025ZM208.54 62.7323C205.686 60.2928 204.216 56.8533 204.216 52.2725H202.216C202.216 57.3251 203.862 61.3655 207.241 64.2527L208.54 62.7323ZM204.216 52.2725V36.9725H202.216V52.2725H204.216ZM204.216 36.9725C204.216 32.6421 205.698 29.2767 208.626 26.7668L207.325 25.2482C203.906 28.1783 202.216 32.1229 202.216 36.9725H204.216ZM208.627 26.7658C211.623 24.1903 215.813 22.8425 221.321 22.8425V20.8425C215.495 20.8425 210.788 22.2714 207.324 25.2492L208.627 26.7658ZM221.321 22.8425C226.829 22.8425 230.986 24.1908 233.922 26.7601L235.239 25.2549C231.829 22.2709 227.145 20.8425 221.321 20.8425V22.8425ZM233.93 26.7668C236.858 29.2767 238.341 32.6421 238.341 36.9725H240.341C240.341 32.1229 238.65 28.1783 235.231 25.2482L233.93 26.7668ZM238.341 36.9725V52.2725H240.341V36.9725H238.341ZM238.341 52.2725C238.341 56.8533 236.871 60.2928 234.016 62.7323L235.315 64.2527C238.694 61.3655 240.341 57.3251 240.341 52.2725H238.341ZM234.024 62.7254C231.15 65.1291 226.963 66.4025 221.321 66.4025V68.4025C227.238 68.4025 231.948 67.0692 235.307 64.2596L234.024 62.7254ZM221.321 54.7175C222.271 54.7175 223.068 54.301 223.598 53.5072L221.933 52.3978C221.783 52.624 221.616 52.7175 221.321 52.7175V54.7175ZM223.555 53.5664C224.117 52.8439 224.361 51.9612 224.361 50.9975H222.361C222.361 51.6204 222.208 52.0411 221.976 52.3386L223.555 53.5664ZM224.361 50.9975V38.2475H222.361V50.9975H224.361ZM224.361 38.2475C224.361 37.2838 224.117 36.4011 223.555 35.6786L221.976 36.9064C222.208 37.2039 222.361 37.6246 222.361 38.2475H224.361ZM223.598 35.7378C223.068 34.944 222.271 34.5275 221.321 34.5275V36.5275C221.616 36.5275 221.783 36.621 221.933 36.8472L223.598 35.7378ZM221.321 34.5275C220.376 34.5275 219.579 34.9353 219.001 35.6786L220.58 36.9064C220.795 36.6297 221.019 36.5275 221.321 36.5275V34.5275ZM219.001 35.6786C218.439 36.4011 218.196 37.2838 218.196 38.2475H220.196C220.196 37.6246 220.349 37.2039 220.58 36.9064L219.001 35.6786ZM218.196 38.2475V50.9975H220.196V38.2475H218.196ZM218.196 50.9975C218.196 51.9612 218.439 52.8439 219.001 53.5664L220.58 52.3386C220.349 52.0411 220.196 51.6204 220.196 50.9975H218.196ZM219.001 53.5664C219.579 54.3097 220.376 54.7175 221.321 54.7175V52.7175C221.019 52.7175 220.795 52.6153 220.58 52.3386L219.001 53.5664Z" fill="#58C5C3"/>
<path d="M21.3848 7.77499C21.3848 7.37833 21.4981 7.06666 21.7248 6.84C21.9514 6.61333 22.2631 6.5 22.6598 6.5H36.0898C36.4864 6.5 36.7981 6.61333 37.0248 6.84C37.2514 7.06666 37.3648 7.37833 37.3648 7.77499V64.725C37.3648 65.1217 37.2514 65.4333 37.0248 65.66C36.7981 65.8867 36.4864 66 36.0898 66H22.6598C22.2631 66 21.9514 65.8867 21.7248 65.66C21.4981 65.4333 21.3848 65.1217 21.3848 64.725V63.025C21.3848 62.7983 21.2998 62.685 21.1298 62.685C21.0164 62.6283 20.9031 62.7133 20.7898 62.94C19.0898 65.4333 16.5964 66.68 13.3098 66.68C9.22977 66.68 6.25477 65.3767 4.38477 62.77C2.57143 60.1633 1.66477 56.4233 1.66477 51.55V36.25C1.66477 31.2067 2.59977 27.4383 4.46977 24.945C6.33977 22.395 9.28643 21.12 13.3098 21.12C16.6531 21.12 19.1464 22.395 20.7898 24.945C20.9031 25.1717 21.0164 25.2567 21.1298 25.2C21.2998 25.1433 21.3848 25.0017 21.3848 24.775V7.77499ZM19.4298 52.995C19.9964 52.995 20.4498 52.74 20.7898 52.23C21.1864 51.72 21.3848 51.0683 21.3848 50.275V37.525C21.3848 36.7317 21.1864 36.08 20.7898 35.57C20.4498 35.06 19.9964 34.805 19.4298 34.805C18.8631 34.805 18.4098 35.06 18.0698 35.57C17.7864 36.08 17.6448 36.7317 17.6448 37.525V50.275C17.6448 51.0683 17.7864 51.72 18.0698 52.23C18.4098 52.74 18.8631 52.995 19.4298 52.995ZM76.5464 46.62C76.5464 47.0167 76.4331 47.3283 76.2064 47.555C75.9798 47.7817 75.6681 47.895 75.2714 47.895H57.2514C56.9114 47.895 56.7414 48.065 56.7414 48.405V50.275C56.7414 51.0683 56.9114 51.72 57.2514 52.23C57.6481 52.74 58.1298 52.995 58.6964 52.995C59.2631 52.995 59.6881 52.7967 59.9714 52.4C60.3114 52.0033 60.5381 51.4933 60.6514 50.87C60.9348 50.0767 61.4164 49.7083 62.0964 49.765L75.1014 50.615C75.9514 50.7283 76.3481 51.1817 76.2914 51.975C76.0081 56.9617 74.4214 60.6733 71.5314 63.11C68.6981 65.49 64.4198 66.68 58.6964 66.68C53.0298 66.68 48.6098 65.3767 45.4364 62.77C42.3198 60.1067 40.7614 56.3667 40.7614 51.55V36.25C40.7614 31.66 42.3481 28.005 45.5214 25.285C48.6948 22.5083 53.0864 21.12 58.6964 21.12C64.3064 21.12 68.6698 22.5083 71.7864 25.285C74.9598 28.005 76.5464 31.66 76.5464 36.25V46.62ZM58.6964 34.805C58.1298 34.805 57.6481 35.06 57.2514 35.57C56.9114 36.08 56.7414 36.7317 56.7414 37.525V39.565C56.7414 39.905 56.9114 40.075 57.2514 40.075H60.0564C60.3964 40.075 60.5664 39.905 60.5664 39.565V37.525C60.5664 36.7317 60.3964 36.08 60.0564 35.57C59.7164 35.06 59.2631 34.805 58.6964 34.805ZM96.8681 66.68C91.4281 66.68 87.0648 65.405 83.7781 62.855C80.5481 60.305 78.9331 56.9333 78.9331 52.74V52.485C78.9331 52.0883 79.0464 51.7767 79.2731 51.55C79.4998 51.3233 79.8114 51.21 80.2081 51.21H92.9581C93.3548 51.21 93.6664 51.3233 93.8931 51.55C94.1198 51.72 94.2331 51.975 94.2331 52.315C94.2331 53.165 94.4881 53.8167 94.9981 54.27C95.5081 54.7233 96.0748 54.95 96.6981 54.95C97.2081 54.95 97.6048 54.8083 97.8881 54.525C98.1714 54.185 98.3131 53.7883 98.3131 53.335C98.3131 52.485 97.8881 51.8617 97.0381 51.465C96.1881 51.0117 94.7714 50.5017 92.7881 49.935C92.1081 49.765 91.3148 49.5383 90.4081 49.255C87.4048 48.2917 84.8264 46.7333 82.6731 44.58C80.5764 42.37 79.5281 39.3667 79.5281 35.57C79.5281 31.15 81.0581 27.6367 84.1181 25.03C87.1781 22.4233 91.2014 21.12 96.1881 21.12C101.401 21.12 105.566 22.5367 108.683 25.37C111.8 28.2033 113.358 31.9433 113.358 36.59C113.358 36.8167 113.245 37.015 113.018 37.185C112.791 37.355 112.48 37.44 112.083 37.44H99.7581C99.3614 37.44 99.0498 37.3267 98.8231 37.1C98.5964 36.8733 98.4831 36.5617 98.4831 36.165V35.655C98.4831 34.975 98.2848 34.4367 97.8881 34.04C97.5481 33.6433 97.1231 33.445 96.6131 33.445C96.0464 33.445 95.5931 33.6717 95.2531 34.125C94.9698 34.5783 94.8281 35.0883 94.8281 35.655C94.8281 36.7883 95.3664 37.6667 96.4431 38.29C97.5764 38.9133 99.0214 39.48 100.778 39.99C104.858 41.18 108.145 42.71 110.638 44.58C113.131 46.45 114.378 49.3117 114.378 53.165C114.378 57.3583 112.763 60.6733 109.533 63.11C106.36 65.49 102.138 66.68 96.8681 66.68ZM140.259 31.575C140.259 31.9717 140.145 32.2833 139.919 32.51C139.692 32.7367 139.38 32.85 138.984 32.85H135.414C135.074 32.85 134.904 33.02 134.904 33.36V49.68C134.904 50.7 135.13 51.4083 135.584 51.805C136.037 52.145 136.689 52.2867 137.539 52.23H137.709C138.105 52.23 138.417 52.3433 138.644 52.57C138.87 52.7967 138.984 53.1083 138.984 53.505V64.725C138.984 65.1217 138.87 65.4333 138.644 65.66C138.417 65.8867 138.105 66 137.709 66H133.629C128.925 66 125.412 65.3483 123.089 64.045C120.765 62.685 119.604 60.05 119.604 56.14V33.36C119.604 33.02 119.434 32.85 119.094 32.85H116.799C116.402 32.85 116.09 32.7367 115.864 32.51C115.637 32.2833 115.524 31.9717 115.524 31.575V23.075C115.524 22.6783 115.637 22.3667 115.864 22.14C116.09 21.9133 116.402 21.8 116.799 21.8H119.094C119.434 21.8 119.604 21.63 119.604 21.29V12.195C119.604 11.7983 119.717 11.4867 119.944 11.26C120.17 11.0333 120.482 10.92 120.879 10.92H133.629C134.025 10.92 134.337 11.0333 134.564 11.26C134.79 11.4867 134.904 11.7983 134.904 12.195V21.29C134.904 21.63 135.074 21.8 135.414 21.8H138.984C139.38 21.8 139.692 21.9133 139.919 22.14C140.145 22.3667 140.259 22.6783 140.259 23.075V31.575ZM150.768 18.825C148.445 18.825 146.518 18.0883 144.988 16.615C143.515 15.085 142.778 13.1583 142.778 10.835C142.778 8.455 143.515 6.52833 144.988 5.055C146.518 3.58166 148.445 2.845 150.768 2.845C153.091 2.845 154.99 3.58166 156.463 5.055C157.993 6.52833 158.758 8.455 158.758 10.835C158.758 13.1017 157.993 15 156.463 16.53C154.99 18.06 153.091 18.825 150.768 18.825ZM144.223 66C143.826 66 143.515 65.8867 143.288 65.66C143.061 65.4333 142.948 65.1217 142.948 64.725V23.075C142.948 22.6783 143.061 22.3667 143.288 22.14C143.515 21.9133 143.826 21.8 144.223 21.8H157.653C158.05 21.8 158.361 21.9133 158.588 22.14C158.815 22.3667 158.928 22.6783 158.928 23.075V64.725C158.928 65.1217 158.815 65.4333 158.588 65.66C158.361 65.8867 158.05 66 157.653 66H144.223ZM185.923 21.12C193.97 21.12 197.993 26.22 197.993 36.42V64.725C197.993 65.1217 197.88 65.4333 197.653 65.66C197.426 65.8867 197.115 66 196.718 66H183.288C182.891 66 182.58 65.8867 182.353 65.66C182.126 65.4333 182.013 65.1217 182.013 64.725V37.525C182.013 35.7117 181.418 34.805 180.228 34.805C178.925 34.805 178.273 35.7117 178.273 37.525V64.725C178.273 65.1217 178.16 65.4333 177.933 65.66C177.706 65.8867 177.395 66 176.998 66H163.568C163.171 66 162.86 65.8867 162.633 65.66C162.406 65.4333 162.293 65.1217 162.293 64.725V23.075C162.293 22.6783 162.406 22.3667 162.633 22.14C162.86 21.9133 163.171 21.8 163.568 21.8H176.998C177.395 21.8 177.706 21.9133 177.933 22.14C178.16 22.3667 178.273 22.6783 178.273 23.075V24.35C178.273 24.4633 178.33 24.52 178.443 24.52C178.726 24.52 179.066 24.265 179.463 23.755C181.106 21.9983 183.26 21.12 185.923 21.12ZM219.321 66.68C213.541 66.68 209.064 65.3767 205.891 62.77C202.774 60.1067 201.216 56.3667 201.216 51.55V36.25C201.216 31.66 202.802 28.005 205.976 25.285C209.206 22.5083 213.654 21.12 219.321 21.12C224.987 21.12 229.407 22.5083 232.581 25.285C235.754 28.005 237.341 31.66 237.341 36.25V51.55C237.341 56.3667 235.782 60.1067 232.666 62.77C229.549 65.3767 225.101 66.68 219.321 66.68ZM219.321 52.995C219.944 52.995 220.426 52.74 220.766 52.23C221.162 51.72 221.361 51.0683 221.361 50.275V37.525C221.361 36.7317 221.162 36.08 220.766 35.57C220.426 35.06 219.944 34.805 219.321 34.805C218.697 34.805 218.187 35.06 217.791 35.57C217.394 36.08 217.196 36.7317 217.196 37.525V50.275C217.196 51.0683 217.394 51.72 217.791 52.23C218.187 52.74 218.697 52.995 219.321 52.995Z" fill="#003057"/>
</svg>
