<svg width="89" height="71" viewBox="0 0 89 71" fill="none" xmlns="http://www.w3.org/2000/svg">
<path d="M59.5849 44.2405L45.0833 69.358L16.0801 69.358L1.57847 44.2405L16.0801 19.123L45.0833 19.123L59.5849 44.2405Z" fill="white" stroke="#58C5C3"/>
<path d="M5.20021 43.9221L17.6965 21.9047" stroke="#58C5C3"/>
<path d="M6.21569 46.3603L19.0351 68.1911" stroke="#58C5C3"/>
<path d="M86.199 42.5797L63.1147 42.4591" stroke="#58C5C3"/>
<path d="M86.1989 45.5879L63.1146 45.4673" stroke="#58C5C3"/>
<g clip-path="url(#clip0_3_90)">
<path d="M36.3939 37.9187C34.1583 35.2157 30.468 35.8597 26.7452 36.7856C28.353 33.3025 29.6778 29.7985 27.4421 27.0955L26.5744 27.8133C26.7645 28.0432 26.9116 28.2899 27.0428 28.5403L16.5732 37.1996C16.3518 37.0238 16.1371 36.8331 15.947 36.6032L15.0792 37.3209C17.3148 40.0239 21.0051 39.3799 24.7279 38.4541C23.1201 41.9371 21.7954 45.4411 24.031 48.1441C26.2666 50.8471 29.9523 50.1975 33.6751 49.2716C32.0673 52.7547 30.7426 56.2587 32.9736 58.956L33.8413 58.2383C33.6651 58.0252 33.5263 57.8 33.4034 57.5711L43.8899 48.8977C44.0917 49.0614 44.2868 49.24 44.4631 49.4531L45.3309 48.7353C43.0999 46.038 39.4096 46.6819 35.6868 47.6078C37.2945 44.1247 38.6193 40.6208 36.3883 37.9234L36.3939 37.9187ZM24.483 46.7975L34.9865 38.1101C35.4178 38.4711 35.673 38.7795 35.9466 39.2709L25.4431 47.9583C25.0118 47.5973 24.7566 47.2889 24.483 46.7975ZM30.1748 37.2261L24.5173 41.9054C24.9256 40.6894 25.5164 39.4074 26.1355 38.1021C27.5384 37.7445 28.9038 37.399 30.1748 37.2261ZM25.3423 37.1431C24.019 37.4821 22.7228 37.8081 21.5135 37.9867L26.8892 33.5405C26.4869 34.6948 25.9236 35.9069 25.3423 37.1431ZM17.6199 37.7883L27.419 29.6835C27.5245 30.3045 27.5065 30.9711 27.3827 31.659L19.5671 38.1232C18.8636 38.1102 18.2101 38.0085 17.6199 37.7883ZM24.0437 43.7421L32.0677 37.1054C32.7544 37.1324 33.3853 37.2528 33.9586 37.487L24.0637 45.671C23.9413 45.0639 23.9368 44.416 24.0437 43.7421ZM30.2512 48.8264L35.8917 44.1611C35.4788 45.3715 34.8936 46.6488 34.2746 47.9542C32.882 48.3127 31.5119 48.6526 30.2456 48.8311L30.2512 48.8264ZM35.0734 48.9084C36.4444 48.5583 37.7883 48.2212 39.0285 48.0454L33.4838 52.6315C33.8946 51.4416 34.4722 50.1895 35.0734 48.9084ZM42.8554 48.2895L33.0056 56.4362C32.8888 55.8246 32.8946 55.1776 33.0025 54.4934L40.9476 47.9219C41.6399 47.9443 42.2765 48.06 42.8554 48.2895ZM36.3608 42.3188L28.3536 48.9415C27.6669 48.9145 27.036 48.7941 26.4627 48.56L36.3463 40.3853C36.4688 40.9923 36.4733 41.6402 36.3664 42.3142L36.3608 42.3188Z" fill="#003057"/>
</g>
<defs>
<clipPath id="clip0_3_90">
<rect width="16.0437" height="28.0765" fill="white" transform="translate(15.0792 37.3209) rotate(-39.5941)"/>
</clipPath>
</defs>
</svg>
