<svg width="95" height="71" viewBox="0 0 95 71" fill="none" xmlns="http://www.w3.org/2000/svg">
<path d="M32.0387 70.5477L17.5774 45.5L32.0387 20.4523L60.9613 20.4523L75.4227 45.5L60.9613 70.5477L32.0387 70.5477Z" fill="white" stroke="#58C5C3"/>
<path d="M34.5262 23.3038L21.4738 44.6962" stroke="#58C5C3"/>
<path d="M59.4312 23.7377L72.2157 45.509" stroke="#58C5C3"/>
<path d="M33 68H60" stroke="#58C5C3"/>
<path d="M62 18L76 0" stroke="#58C5C3"/>
<path d="M65 20L79 2" stroke="#58C5C3"/>
<g clip-path="url(#clip0_3_84)">
<path d="M49.9396 35.002H43.351C42.9381 35.002 42.5834 34.6522 42.5834 34.2509C42.5834 33.8495 42.9381 33.4998 43.351 33.4998H49.9977C50.4106 33.4998 50.7595 33.8495 50.7595 34.2509C50.7014 34.658 50.3466 35.002 49.9337 35.002H49.9396Z" fill="#003057"/>
<path d="M49.9396 32.8577H43.351C42.9381 32.8577 42.5834 32.5079 42.5834 32.1066C42.5834 31.7052 42.9381 31.3497 43.351 31.3497H49.9977C50.4106 31.3497 50.7595 31.6995 50.7595 32.1066C50.7014 32.5136 50.3466 32.8577 49.9337 32.8577H49.9396Z" fill="#003057"/>
<path d="M49.9396 45.9071H43.351C42.9381 45.9071 42.5834 45.5573 42.5834 45.1503C42.5834 44.7432 42.9381 44.3934 43.351 44.3934H49.9977C50.4106 44.3934 50.7595 44.7432 50.7595 45.1503C50.7014 45.5573 50.3466 45.9071 49.9337 45.9071H49.9396Z" fill="#003057"/>
<path d="M49.9396 43.6997H33.7676C33.3547 43.6997 33 43.3499 33 42.9486C33 42.5472 33.3547 42.1918 33.7676 42.1918H49.9454C50.3583 42.1918 50.713 42.5415 50.713 42.9486C50.713 43.3557 50.3583 43.6997 49.9454 43.6997H49.9396Z" fill="#003057"/>
<path d="M60.2382 48.0514H43.3568C42.9439 48.0514 42.5892 47.7017 42.5892 47.3003C42.5892 46.899 42.9439 46.5435 43.3568 46.5435H60.2382C60.6511 46.5435 61.0058 46.8932 61.0058 47.3003C61.0058 47.7074 60.6511 48.0514 60.2382 48.0514Z" fill="#003057"/>
<path d="M49.4104 56.7491H43.822C43.4091 56.7491 43.0602 56.3994 43.0602 55.998C43.0602 55.5967 43.415 55.2469 43.822 55.2469H49.4104C49.8233 55.2469 50.178 55.5967 50.178 55.998C50.178 56.3994 49.8233 56.7491 49.4104 56.7491Z" fill="#003057"/>
<path d="M49.4104 58.9565H43.822C43.4091 58.9565 43.0602 58.6068 43.0602 58.2054C43.0602 57.8041 43.415 57.4543 43.822 57.4543H49.4104C49.8233 57.4543 50.178 57.8041 50.178 58.2054C50.178 58.6068 49.8233 58.9565 49.4104 58.9565Z" fill="#003057"/>
<path d="M46.6482 53.1542C42.4147 53.1542 38.9431 49.7313 38.9431 45.5573C38.9431 44.5712 39.1175 43.6424 39.4723 42.7709C40.0596 41.3776 41.0017 40.1621 42.2345 39.2906C43.5313 38.4191 45.0606 37.9547 46.6482 37.9547C50.8816 37.9547 54.3533 41.3776 54.3533 45.5516C54.3533 46.2454 54.237 46.8875 54.0567 47.5813C53.1728 50.8264 50.114 53.1485 46.6424 53.1485L46.6482 53.1542ZM46.6482 39.348C44.0604 39.348 41.7634 40.8559 40.8272 43.2353C40.5306 43.929 40.4143 44.7432 40.4143 45.5C40.4143 48.9229 43.2405 51.6463 46.6482 51.6463C49.4744 51.6463 51.94 49.7887 52.7076 47.1226C52.8239 46.6008 52.9402 46.0791 52.9402 45.5C52.882 42.1344 50.0559 39.3537 46.6482 39.3537V39.348Z" fill="#003057"/>
<path d="M46.6482 39.3537C42.4147 39.3537 38.9431 35.9308 38.9431 31.7568C38.9431 31.3497 39.2978 31 39.7049 31C40.1119 31 40.4725 31.3497 40.4725 31.7568C40.4725 35.1797 43.2986 37.9031 46.7063 37.9031C50.114 37.9031 52.9402 35.1166 52.9402 31.7568C52.9402 31.3497 53.2949 31 53.7078 31C54.1207 31 54.4696 31.3497 54.4696 31.7568C54.3533 35.9308 50.8816 39.3537 46.6482 39.3537Z" fill="#003057"/>
<path d="M53.6496 60C53.2368 60 52.8879 59.6503 52.8879 59.2489C52.8879 55.826 50.0617 53.1026 46.654 53.1026C43.2463 53.1026 40.4201 55.8891 40.4201 59.2489C40.4201 59.656 40.0654 60 39.6584 60C39.2513 60 38.8908 59.6503 38.8908 59.2489C38.8908 55.0749 42.3624 51.652 46.5958 51.652C50.8293 51.652 54.3591 55.0749 54.3591 59.3062C54.3591 59.7133 54.0044 60 53.6555 60H53.6496Z" fill="#003057"/>
</g>
<defs>
<clipPath id="clip0_3_84">
<rect width="28" height="29" fill="white" transform="translate(33 31)"/>
</clipPath>
</defs>
</svg>
